<svg width="20" height="29" viewBox="0 0 20 29" fill="none" xmlns="http://www.w3.org/2000/svg">
<path d="M0.666748 9.99999C0.666748 4.84534 4.84543 0.666656 10.0001 0.666656C15.1547 0.666656 19.3334 4.84534 19.3334 9.99999C19.3334 12.7 18.4407 15.6476 16.8673 17.9408C15.4767 19.9673 13.4759 21.5827 11.0001 21.9305V22.3333C11.0001 22.8856 11.4478 23.3333 12.0001 23.3333H16.3334C17.9902 23.3333 19.3334 24.6765 19.3334 26.3333V27.6667C19.3334 28.2189 18.8857 28.6667 18.3334 28.6667C17.7811 28.6667 17.3334 28.2189 17.3334 27.6667V26.3333C17.3334 25.7811 16.8857 25.3333 16.3334 25.3333H12.0001C10.3433 25.3333 9.00008 23.9901 9.00008 22.3333V21.9305C6.52424 21.5827 4.52337 19.9673 3.13285 17.9408C1.55944 15.6476 0.666748 12.7 0.666748 9.99999ZM11.2262 4.8085C10.6887 4.68191 10.1502 5.01508 10.0237 5.55266C9.89715 6.09024 10.2302 6.62866 10.7678 6.75524C11.9889 7.04278 12.9529 8.00491 13.243 9.22495C13.3707 9.76224 13.9099 10.0942 14.4471 9.96644C14.9845 9.83867 15.3165 9.29951 15.1887 8.76222C14.7235 6.80611 13.1841 5.26951 11.2262 4.8085Z" fill="white"/>
</svg>
