<svg width="24" height="24" viewBox="0 0 24 24" fill="none" xmlns="http://www.w3.org/2000/svg">
<path d="M7.44412 12.906L7.89912 13.359C7.89912 13.359 8.98212 14.435 11.9371 11.497C14.8921 8.55898 13.8091 7.48298 13.8091 7.48298L13.5231 7.19698C12.8161 6.49498 12.7491 5.36698 13.3661 4.54298L14.6261 2.85998C15.3901 1.83998 16.8651 1.70498 17.7401 2.57498L19.3101 4.13498C19.7431 4.56698 20.0331 5.12498 19.9981 5.74498C19.9081 7.33198 19.1901 10.745 15.1861 14.727C10.9391 18.949 6.95412 19.117 5.32512 18.965C4.80912 18.917 4.36112 18.655 4.00012 18.295L2.58012 16.883C1.62012 15.93 1.89012 14.295 3.11812 13.628L5.02812 12.589C5.83412 12.151 6.81412 12.28 7.44412 12.906Z" fill="white"/>
</svg>
